<?xml version="1.0" encoding="utf-8"?>
<!-- Generator: Adobe Illustrator 15.1.0, SVG Export Plug-In . SVG Version: 6.00 Build 0)  -->
<!DOCTYPE svg PUBLIC "-//W3C//DTD SVG 1.1//EN" "http://www.w3.org/Graphics/SVG/1.1/DTD/svg11.dtd">
<svg version="1.1" id="Layer_1" xmlns="http://www.w3.org/2000/svg" xmlns:xlink="http://www.w3.org/1999/xlink" x="0px" y="0px"
	 width="100px" height="54.805px" viewBox="0 0 100 54.805" enable-background="new 0 0 100 54.805" xml:space="preserve">
	 <script type="text/javascript">
    window.onload = function() {  
        var g = document.getElementById("rotator");
        var i = 0;
        var timer = setInterval(function() {
            var rad = i++ / 360 * Math.PI * 2;
            var rotateVal = 14 * Math.sin(10 * rad - Math.PI / 2) + 12;
            g.setAttribute("transform", "rotate(" + rotateVal + " 50 27)");      
        }, 40);    
    };
</script>

<g id="rotator" transform="rotate(0)">
	<circle cx="14.466" cy="17.737" r="4.264" />
	<circle cx="77.027" cy="4.167" r="4.264" />
	<path d="M 77.207 27.417 l -1.003 4.827 l 4.959 1.267 l 4.274 -7.878 L 100 22.474 l -1.143 -5.267 l -5.006 1.085 c 1.573 -3.747 -1.045 -5.289 -1.045 -5.289 L 82.312 6.087 l -4.217 3.005 l -4.084 6.25 c 0 0 -1.974 3.023 -0.126 4.636 l 0.192 2.604 L 24.779 33.273 l -0.903 -2.447 c 1.013 -2.233 -2.036 -4.167 -2.036 -4.167 l -6.306 -3.996 l -5.082 -0.989 L 3.764 32.316 c 0 0 -1.747 2.488 1.239 5.246 L 0 38.648 l 1.142 5.269 l 14.562 -3.158 l 7.155 5.398 l 3.989 -3.207 l -2.913 -3.978 L 77.207 27.417 Z M 20.043 34.301 l -5.588 -2.679 l 1.379 -4.267 l 5.61 2.643 l 1.367 3.702 L 20.043 34.301 Z M 78.814 21.554 l -2.771 0.602 l -0.29 -3.938 l 4.014 -4.728 l 3.022 3.31 L 78.814 21.554 Z" />
</g>
	<polygon points="49.999,33.319 44.807,37.859 44.807,54.804 50,54.804 55.193,54.804 55.193,37.859" />
</svg>
